<svg width="409.0000122070312" height="109.15057950934366" viewBox="0 0 350 93.40513860164019" class="looka-1j8o68f"><defs id="SvgjsDefs1546"></defs><g id="SvgjsG1547" featurekey="nameFeature-0" transform="matrix(2.4477235230033787,0,0,2.4477235230033787,-1.370722698490971,-25.064688315315145)" fill="#ff677e"><path d="M14.16 35.08 l1.28 4.28 c-1.6 0.64 -3.04 0.96 -4.72 0.96 c-4.64 0 -6.76 -2.88 -6.76 -7.24 l0 -8.68 l-3.4 0 l0 -4.64 l3.4 0 l0 -6.56 l5.32 0 l0 6.56 l5.92 0 l0 4.64 l-5.92 0 l0 8.68 c0 1.64 0.8 2.56 2.48 2.56 c0.92 0 1.6 -0.16 2.4 -0.56 z M25.29 40.56 c-5.6 0 -10 -4.56 -10 -10.68 c0 -6.16 4.4 -10.68 10 -10.68 c2.84 0 5.08 1.16 6.52 3 l0 -2.44 l5.32 0 l0 20.24 l-5.32 0 l0 -2.48 c-1.44 1.84 -3.68 3.04 -6.52 3.04 z M26.21 35.84 c3.2 0 5.76 -2.48 5.76 -6 c0 -3.48 -2.56 -5.92 -5.76 -5.92 c-3.32 0 -5.68 2.44 -5.68 5.92 c0 3.52 2.36 6 5.68 6 z M55.06 19.76 l5.32 0 l0 28.64 l-5.32 0 l0 -10.88 c-1.44 1.84 -3.68 3.04 -6.52 3.04 c-5.6 0 -10 -4.56 -10 -10.68 c0 -6.16 4.4 -10.68 10 -10.68 c2.84 0 5.08 1.16 6.52 3 l0 -2.44 z M49.46 35.84 c3.2 0 5.76 -2.48 5.76 -6 c0 -3.48 -2.56 -5.92 -5.76 -5.92 c-3.32 0 -5.68 2.44 -5.68 5.92 c0 3.52 2.36 6 5.68 6 z M77.31 19.76 l5.28 0 l0 20.24 l-5.28 0 l0 -2.56 c-1.36 1.8 -3.56 3.12 -6.48 3.12 c-5.32 0 -8 -3.56 -8 -9 l0 -11.8 l5.28 0 l0 10.8 c0 3.08 1.4 5.08 4.32 5.08 c3 0 4.88 -2.32 4.88 -5.92 l0 -9.96 z M87.92 16.92 c-1.76 0 -3.16 -1.36 -3.16 -3.12 c0 -1.68 1.4 -3.04 3.16 -3.04 s3.16 1.36 3.16 3.04 c0 1.76 -1.4 3.12 -3.16 3.12 z M85.2 40 l0 -20.24 l5.32 0 l0 20.24 l-5.32 0 z M103.45 10.239999999999998 c3.96 0 7.2 0.76 10.32 2.72 l0 27.04 l-5.32 0 l0 -24.24 c-1.4 -0.64 -2.8 -0.92 -4.48 -0.92 c-2 0 -3.4 1.16 -3.4 3.08 l0 1.84 l5.2 0 l0 4.64 l-5.2 0 l0 15.6 l-5.28 0 l0 -15.6 l-3.88 0 l0 -4.64 l3.88 0 l0 -1.84 c0 -4.68 2.72 -7.68 8.16 -7.68 z M119.10000000000001 16.92 c-1.76 0 -3.16 -1.36 -3.16 -3.12 c0 -1.68 1.4 -3.04 3.16 -3.04 s3.16 1.36 3.16 3.04 c0 1.76 -1.4 3.12 -3.16 3.12 z M116.38000000000001 40 l0 -20.24 l5.32 0 l0 20.24 l-5.32 0 z M143.55 40 l-6.04 0 l-4.76 -6.44 l-4.76 6.44 l-6 0 l7.56 -10.24 l-7.24 -10 l6 0 l4.44 6.12 l4.48 -6.12 l5.96 0 l-7.2 10 z"></path></g></svg>